<!--?xml version="1.0" standalone="no"?-->
              <svg id="sw-js-blob-svg" viewBox="0 0 100 100" xmlns="http://www.w3.org/2000/svg" version="1.1">
                    <defs> 
                        <linearGradient id="sw-gradient" x1="0" x2="1" y1="1" y2="0">
                            <stop id="stop1" stop-color="rgba(51, 0, 102, 1)" offset="0%"></stop>
                            <stop id="stop2" stop-color="rgba(51, 0, 102, 1)" offset="100%"></stop>
                        </linearGradient>
                    </defs>
                <path fill="url(#sw-gradient)" d="M16.4,-27C22.8,-24.8,30.3,-23.4,35.6,-19C40.9,-14.6,43.9,-7.3,43.2,-0.4C42.5,6.5,38,12.9,33.9,19.3C29.8,25.8,26,32.2,20.5,35.9C14.9,39.7,7.4,40.8,-0.1,40.9C-7.5,41,-15.1,40.1,-20.8,36.4C-26.4,32.7,-30.3,26.2,-34.8,19.7C-39.3,13.1,-44.4,6.6,-44.5,0C-44.5,-6.6,-39.4,-13.2,-34.6,-19.1C-29.7,-25,-25,-30.2,-19.3,-32.7C-13.6,-35.2,-6.8,-35,-0.9,-33.5C5.1,-32,10.1,-29.1,16.4,-27Z" width="100%" height="100%" transform="translate(50 50)" style="transition: 0.3s;" stroke-width="0" stroke="rgba(0, 102, 102, 1)"></path>
              </svg>